<svg width="429" height="256" viewBox="0 0 429 256" fill="none" xmlns="http://www.w3.org/2000/svg">
<rect width="429" height="256" fill="url(#paint0_linear_12_50)"/>
<path d="M31 21L32.1226 24.4549H35.7553L32.8164 26.5902L33.9389 30.0451L31 27.9098L28.0611 30.0451L29.1836 26.5902L26.2447 24.4549H29.8774L31 21Z" fill="#F6E845"/>
<path d="M392.5 57L393.061 58.7275H394.878L393.408 59.7951L393.969 61.5225L392.5 60.4549L391.031 61.5225L391.592 59.7951L390.122 58.7275H391.939L392.5 57Z" fill="#F6E845"/>
<path d="M124.5 69L125.061 70.7275H126.878L125.408 71.7951L125.969 73.5225L124.5 72.4549L123.031 73.5225L123.592 71.7951L122.122 70.7275H123.939L124.5 69Z" fill="#F6E845"/>
<circle cx="108.5" cy="24.5" r="1.5" fill="white"/>
<circle cx="298" cy="80" r="1" fill="white"/>
<circle cx="378" cy="26" r="1" fill="white"/>
<circle cx="254" cy="16" r="1" fill="white"/>
<circle cx="242" cy="66" r="1" fill="white"/>
<circle cx="184" cy="103" r="1" fill="white"/>
<circle cx="177.5" cy="53.5" r="1.5" fill="white"/>
<circle cx="20" cy="94" r="1" fill="white"/>
<circle cx="61" cy="73" r="1" fill="white"/>
<circle cx="367" cy="109" r="1" fill="white"/>
<path d="M318 25L318.898 27.7639H321.804L319.453 29.4721L320.351 32.2361L318 30.5279L315.649 32.2361L316.547 29.4721L314.196 27.7639H317.102L318 25Z" fill="#F6E845"/>
<path fill-rule="evenodd" clip-rule="evenodd" d="M429 256H0C37.8466 220.545 119.666 196 214.5 196C309.334 196 391.153 220.545 429 256Z" fill="#D5D5D5"/>
<ellipse cx="25.0582" cy="6.74267" rx="25.0582" ry="6.74267" transform="matrix(0.914379 -0.40486 0.400312 0.916379 66.8582 241.108)" fill="#B4B4B4"/>
<ellipse cx="12.0231" cy="3.23777" rx="12.0231" ry="3.23777" transform="matrix(0.94667 -0.322205 0.31833 0.94798 313.656 248.748)" fill="#B4B4B4"/>
<ellipse cx="5.00833" cy="1.34942" rx="5.00833" ry="1.34942" transform="matrix(0.966846 -0.255361 0.252161 0.967685 120.54 230.356)" fill="#B4B4B4"/>
<ellipse cx="4.71964" cy="1.1929" rx="4.71964" ry="1.1929" transform="matrix(0.966846 -0.255361 0.252161 0.967685 120.619 230.659)" fill="#C7C7C7"/>
<ellipse cx="23.9535" cy="6.29041" rx="23.9535" ry="6.29041" transform="matrix(0.914379 -0.40486 0.400312 0.916379 67.7521 242.014)" fill="#C7C7C7"/>
<ellipse cx="11.8853" cy="3.01743" rx="11.8853" ry="3.01743" transform="matrix(0.94667 -0.322205 0.31833 0.94798 313.331 249.558)" fill="#C7C7C7"/>
<path d="M227.077 219.193C227.958 208.303 212.768 199.193 205.064 196H224.876C236.616 198.017 258.116 205.479 250.191 219.193C242.266 232.908 271.104 249.445 286.513 256H265.6C252.392 248.269 226.197 230.084 227.077 219.193Z" fill="#B9B8B8"/>
<path d="M195.346 219.5C195.593 208.7 191.829 199.717 189.668 196.55L193.144 196.4C196.437 198.4 204.052 205.9 201.829 219.5C199.606 233.1 207.695 249.5 212.017 256H206.151C202.446 248.333 195.099 230.3 195.346 219.5Z" fill="#C7C7C7"/>
<defs>
<linearGradient id="paint0_linear_12_50" x1="214.5" y1="0" x2="215" y2="256" gradientUnits="userSpaceOnUse">
<stop stop-color="#2B244D"/>
<stop offset="0.416667" stop-color="#493989"/>
<stop offset="0.583333" stop-color="#4F408B"/>
<stop offset="1" stop-color="#2B244D"/>
</linearGradient>
</defs>
</svg>
